<svg width="174pt" height="188pt"
 viewBox="0.00 0.00 173.75 188.00" xmlns="http://www.w3.org/2000/svg" xmlns:xlink="http://www.w3.org/1999/xlink">
<g id="graph0" class="graph" transform="scale(1 1) rotate(0) translate(4 184)">
<title>G</title>
<polygon fill="white" stroke="transparent" points="-4,4 -4,-184 169.75,-184 169.75,4 -4,4"/>
<!-- orgswevolutionCalculator -->
<g id="node1" class="node">
<title>orgswevolutionCalculator</title>
<polygon fill="none" stroke="black" points="124.34,-180 46.34,-180 46.34,-144 124.34,-144 124.34,-180"/>
<text text-anchor="middle" x="85.34" y="-158.3" font-family="Times New Roman" font-size="14.00">Calculator</text>
</g>
<!-- orgswevolutionaddAdd -->
<g id="node2" class="node">
<title>orgswevolutionaddAdd</title>
<polygon fill="none" stroke="black" points="72.34,-36 18.34,-36 18.34,0 72.34,0 72.34,-36"/>
<text text-anchor="middle" x="45.34" y="-14.3" font-family="Times New Roman" font-size="14.00">Add</text>
</g>
<!-- orgswevolutionCalculator&#45;&gt;orgswevolutionaddAdd -->
<g id="edge1" class="edge">
<title>orgswevolutionCalculator&#45;&gt;orgswevolutionaddAdd</title>
<path fill="none" stroke="black" d="M46.21,-145.5C30.22,-136.99 13.38,-124.7 4.34,-108 -7.1,-86.85 6.6,-61.92 21.16,-43.84"/>
<polygon fill="black" stroke="black" points="23.98,-45.92 27.82,-36.05 18.66,-41.37 23.98,-45.92"/>
</g>
<!-- orgswevolutionsubtractSubtract -->
<g id="node3" class="node">
<title>orgswevolutionsubtractSubtract</title>
<polygon fill="none" stroke="black" points="160.34,-36 90.34,-36 90.34,0 160.34,0 160.34,-36"/>
<text text-anchor="middle" x="125.34" y="-14.3" font-family="Times New Roman" font-size="14.00">Subtract</text>
</g>
<!-- orgswevolutionCalculator&#45;&gt;orgswevolutionsubtractSubtract -->
<g id="edge2" class="edge">
<title>orgswevolutionCalculator&#45;&gt;orgswevolutionsubtractSubtract</title>
<path fill="none" stroke="black" d="M124.12,-143.78C138.52,-135.24 153.31,-123.4 161.34,-108 172.14,-87.3 160.35,-62.61 147.45,-44.49"/>
<polygon fill="black" stroke="black" points="149.96,-42.01 141.12,-36.17 144.39,-46.25 149.96,-42.01"/>
</g>
<!-- orgswevolutionmultiplyMultiply -->
<g id="node4" class="node">
<title>orgswevolutionmultiplyMultiply</title>
<polygon fill="none" stroke="black" points="78.84,-108 13.84,-108 13.84,-72 78.84,-72 78.84,-108"/>
<text text-anchor="middle" x="46.34" y="-86.3" font-family="Times New Roman" font-size="14.00">Multiply</text>
</g>
<!-- orgswevolutionCalculator&#45;&gt;orgswevolutionmultiplyMultiply -->
<g id="edge3" class="edge">
<title>orgswevolutionCalculator&#45;&gt;orgswevolutionmultiplyMultiply</title>
<path fill="none" stroke="black" d="M75.7,-143.7C71.22,-135.64 65.78,-125.89 60.82,-116.98"/>
<polygon fill="black" stroke="black" points="63.8,-115.14 55.87,-108.1 57.68,-118.54 63.8,-115.14"/>
</g>
<!-- orgswevolutiondivideDivide -->
<g id="node5" class="node">
<title>orgswevolutiondivideDivide</title>
<polygon fill="none" stroke="black" points="151.84,-108 96.84,-108 96.84,-72 151.84,-72 151.84,-108"/>
<text text-anchor="middle" x="124.34" y="-86.3" font-family="Times New Roman" font-size="14.00">Divide</text>
</g>
<!-- orgswevolutionCalculator&#45;&gt;orgswevolutiondivideDivide -->
<g id="edge4" class="edge">
<title>orgswevolutionCalculator&#45;&gt;orgswevolutiondivideDivide</title>
<path fill="none" stroke="black" d="M94.98,-143.7C99.47,-135.64 104.9,-125.89 109.87,-116.98"/>
<polygon fill="black" stroke="black" points="113,-118.54 114.81,-108.1 106.89,-115.14 113,-118.54"/>
</g>
<!-- orgswevolutionmultiplyMultiply&#45;&gt;orgswevolutionaddAdd -->
<g id="edge5" class="edge">
<title>orgswevolutionmultiplyMultiply&#45;&gt;orgswevolutionaddAdd</title>
<path fill="none" stroke="black" d="M46.1,-71.7C45.99,-63.98 45.85,-54.71 45.73,-46.11"/>
<polygon fill="black" stroke="black" points="49.23,-46.05 45.59,-36.1 42.23,-46.15 49.23,-46.05"/>
</g>
<!-- orgswevolutionmultiplyMultiply&#45;&gt;orgswevolutionsubtractSubtract -->
<g id="edge6" class="edge">
<title>orgswevolutionmultiplyMultiply&#45;&gt;orgswevolutionsubtractSubtract</title>
<path fill="none" stroke="black" d="M65.87,-71.7C75.72,-62.97 87.83,-52.24 98.54,-42.75"/>
<polygon fill="black" stroke="black" points="100.88,-45.36 106.04,-36.1 96.23,-40.12 100.88,-45.36"/>
</g>
<!-- orgswevolutiondivideDivide&#45;&gt;orgswevolutionaddAdd -->
<g id="edge7" class="edge">
<title>orgswevolutiondivideDivide&#45;&gt;orgswevolutionaddAdd</title>
<path fill="none" stroke="black" d="M104.81,-71.7C94.96,-62.97 82.86,-52.24 72.15,-42.75"/>
<polygon fill="black" stroke="black" points="74.45,-40.12 64.65,-36.1 69.81,-45.36 74.45,-40.12"/>
</g>
<!-- orgswevolutiondivideDivide&#45;&gt;orgswevolutionsubtractSubtract -->
<g id="edge8" class="edge">
<title>orgswevolutiondivideDivide&#45;&gt;orgswevolutionsubtractSubtract</title>
<path fill="none" stroke="black" d="M124.59,-71.7C124.7,-63.98 124.83,-54.71 124.96,-46.11"/>
<polygon fill="black" stroke="black" points="128.46,-46.15 125.1,-36.1 121.46,-46.05 128.46,-46.15"/>
</g>
</g>
</svg>
