<?xml version="1.0" encoding="UTF-8" standalone="no"?><!DOCTYPE svg PUBLIC "-//W3C//DTD SVG 1.1//EN" "http://www.w3.org/Graphics/SVG/1.1/DTD/svg11.dtd"><!-- Generated by graphviz version 2.40.1 (20161225.0304)
 --><!-- Title: mygraph Pages: 1 --><svg xmlns="http://www.w3.org/2000/svg" xmlns:xlink="http://www.w3.org/1999/xlink" width="2775pt" height="260pt" viewBox="0.00 0.00 2775.07 260.00">
<g id="graph0" class="graph" transform="scale(1 1) rotate(0) translate(4 256)">
<title>mygraph</title>
<polygon fill="#ffffff" stroke="transparent" points="-4,4 -4,-256 2771.0737,-256 2771.0737,4 -4,4"/>
<!-- //:Calculator -->
<g id="node1" class="node">
<title>//:Calculator</title>
<polygon fill="none" stroke="#000000" points="1912.6957,-252 1826.7265,-252 1826.7265,-216 1912.6957,-216 1912.6957,-252"/>
<text text-anchor="middle" x="1869.7111" y="-229.8" font-family="Times,serif" font-size="14.00" fill="#000000">//:Calculator</text>
</g>
<!-- @maven//:org_swevolution_Add_Add -->
<g id="node2" class="node">
<title>@maven//:org_swevolution_Add_Add</title>
<polygon fill="none" stroke="#000000" points="906.9068,-180 672.5154,-180 672.5154,-144 906.9068,-144 906.9068,-180"/>
<text text-anchor="middle" x="789.7111" y="-157.8" font-family="Times,serif" font-size="14.00" fill="#000000">@maven//:org_swevolution_Add_Add</text>
</g>
<!-- //:Calculator&#45;&gt;@maven//:org_swevolution_Add_Add -->
<g id="edge1" class="edge">
<title>//:Calculator-&gt;@maven//:org_swevolution_Add_Add</title>
<path fill="none" stroke="#000000" d="M1826.7074,-231.1331C1674.8062,-221.0063 1159.6109,-186.66 917.457,-170.5164"/>
<polygon fill="#000000" stroke="#000000" points="917.4041,-167.0052 907.1934,-169.8322 916.9384,-173.9897 917.4041,-167.0052"/>
</g>
<!-- @maven//:org_swevolution_subtract_Subtract -->
<g id="node3" class="node">
<title>@maven//:org_swevolution_subtract_Subtract</title>
<polygon fill="none" stroke="#000000" points="2561.1627,-108 2284.2595,-108 2284.2595,-72 2561.1627,-72 2561.1627,-108"/>
<text text-anchor="middle" x="2422.7111" y="-85.8" font-family="Times,serif" font-size="14.00" fill="#000000">@maven//:org_swevolution_subtract_Subtract</text>
</g>
<!-- //:Calculator&#45;&gt;@maven//:org_swevolution_subtract_Subtract -->
<g id="edge2" class="edge">
<title>//:Calculator-&gt;@maven//:org_swevolution_subtract_Subtract</title>
<path fill="none" stroke="#000000" d="M1912.8764,-223.5802C1944.053,-214.8681 1986.3631,-200.5362 2019.7111,-180 2039.5207,-167.801 2036.7894,-154.1743 2057.7111,-144 2067.9972,-138.9979 2180.4462,-122.7652 2277.8447,-109.3923"/>
<polygon fill="#000000" stroke="#000000" points="2278.3895,-112.8505 2287.8217,-108.0252 2277.4391,-105.9153 2278.3895,-112.8505"/>
</g>
<!-- @maven//:org_swevolution_multiply_Multiply -->
<g id="node4" class="node">
<title>@maven//:org_swevolution_multiply_Multiply</title>
<polygon fill="none" stroke="#000000" points="2011.1538,-180 1728.2684,-180 1728.2684,-144 2011.1538,-144 2011.1538,-180"/>
<text text-anchor="middle" x="1869.7111" y="-157.8" font-family="Times,serif" font-size="14.00" fill="#000000">@maven//:org_swevolution_multiply_Multiply</text>
</g>
<!-- //:Calculator&#45;&gt;@maven//:org_swevolution_multiply_Multiply -->
<g id="edge3" class="edge">
<title>//:Calculator-&gt;@maven//:org_swevolution_multiply_Multiply</title>
<path fill="none" stroke="#000000" d="M1869.7111,-215.8314C1869.7111,-208.131 1869.7111,-198.9743 1869.7111,-190.4166"/>
<polygon fill="#000000" stroke="#000000" points="1873.2112,-190.4132 1869.7111,-180.4133 1866.2112,-190.4133 1873.2112,-190.4132"/>
</g>
<!-- @maven//:org_swevolution_divide_Divide -->
<g id="node5" class="node">
<title>@maven//:org_swevolution_divide_Divide</title>
<polygon fill="none" stroke="#000000" points="1614.2917,-180 1355.1305,-180 1355.1305,-144 1614.2917,-144 1614.2917,-180"/>
<text text-anchor="middle" x="1484.7111" y="-157.8" font-family="Times,serif" font-size="14.00" fill="#000000">@maven//:org_swevolution_divide_Divide</text>
</g>
<!-- //:Calculator&#45;&gt;@maven//:org_swevolution_divide_Divide -->
<g id="edge4" class="edge">
<title>//:Calculator-&gt;@maven//:org_swevolution_divide_Divide</title>
<path fill="none" stroke="#000000" d="M1826.6674,-225.9503C1770.0278,-215.3579 1668.5632,-196.3827 1590.819,-181.8435"/>
<polygon fill="#000000" stroke="#000000" points="1591.4522,-178.4014 1580.9792,-180.0034 1590.1653,-185.2821 1591.4522,-178.4014"/>
</g>
<!-- //:src/main/java/Calculator.java -->
<g id="node6" class="node">
<title>//:src/main/java/Calculator.java</title>
<polygon fill="none" stroke="#000000" points="2258.8227,-180 2066.5995,-180 2066.5995,-144 2258.8227,-144 2258.8227,-180"/>
<text text-anchor="middle" x="2162.7111" y="-157.8" font-family="Times,serif" font-size="14.00" fill="#000000">//:src/main/java/Calculator.java</text>
</g>
<!-- //:Calculator&#45;&gt;//:src/main/java/Calculator.java -->
<g id="edge5" class="edge">
<title>//:Calculator-&gt;//:src/main/java/Calculator.java</title>
<path fill="none" stroke="#000000" d="M1912.9443,-223.3762C1956.6279,-212.6416 2025.2354,-195.7824 2079.5006,-182.4476"/>
<polygon fill="#000000" stroke="#000000" points="2080.5811,-185.7863 2089.4569,-180.001 2078.9106,-178.9886 2080.5811,-185.7863"/>
</g>
<!-- @maven//:v1/http/localhost%3A8000/org/swevolution/Add/Add/1.0&#45;SNAPSHOT/Add&#45;1.0&#45;SNAPSHOT.jar -->
<g id="node12" class="node">
<title>@maven//:v1/http/localhost%3A8000/org/swevolution/Add/Add/1.0-SNAPSHOT/Add-1.0-SNAPSHOT.jar</title>
<polygon fill="none" stroke="#000000" points="623.6334,-108 -.2112,-108 -.2112,-72 623.6334,-72 623.6334,-108"/>
<text text-anchor="middle" x="311.7111" y="-85.8" font-family="Times,serif" font-size="14.00" fill="#000000">@maven//:v1/http/localhost%3A8000/org/swevolution/Add/Add/1.0-SNAPSHOT/Add-1.0-SNAPSHOT.jar</text>
</g>
<!-- @maven//:org_swevolution_Add_Add&#45;&gt;@maven//:v1/http/localhost%3A8000/org/swevolution/Add/Add/1.0&#45;SNAPSHOT/Add&#45;1.0&#45;SNAPSHOT.jar -->
<g id="edge14" class="edge">
<title>@maven//:org_swevolution_Add_Add-&gt;@maven//:v1/http/localhost%3A8000/org/swevolution/Add/Add/1.0-SNAPSHOT/Add-1.0-SNAPSHOT.jar</title>
<path fill="none" stroke="#000000" d="M672.4732,-144.3407C602.5152,-133.8031 513.5658,-120.4049 441.4959,-109.5492"/>
<polygon fill="#000000" stroke="#000000" points="441.8521,-106.0634 431.4423,-108.0348 440.8094,-112.9853 441.8521,-106.0634"/>
</g>
<!-- @maven//:v1/http/localhost%3A8000/org/swevolution/subtract/Subtract/1.0&#45;SNAPSHOT/Subtract&#45;1.0&#45;SNAPSHOT.jar -->
<g id="node11" class="node">
<title>@maven//:v1/http/localhost%3A8000/org/swevolution/subtract/Subtract/1.0-SNAPSHOT/Subtract-1.0-SNAPSHOT.jar</title>
<polygon fill="none" stroke="#000000" points="2766.9364,-36 2078.4858,-36 2078.4858,0 2766.9364,0 2766.9364,-36"/>
<text text-anchor="middle" x="2422.7111" y="-13.8" font-family="Times,serif" font-size="14.00" fill="#000000">@maven//:v1/http/localhost%3A8000/org/swevolution/subtract/Subtract/1.0-SNAPSHOT/Subtract-1.0-SNAPSHOT.jar</text>
</g>
<!-- @maven//:org_swevolution_subtract_Subtract&#45;&gt;@maven//:v1/http/localhost%3A8000/org/swevolution/subtract/Subtract/1.0&#45;SNAPSHOT/Subtract&#45;1.0&#45;SNAPSHOT.jar -->
<g id="edge13" class="edge">
<title>@maven//:org_swevolution_subtract_Subtract-&gt;@maven//:v1/http/localhost%3A8000/org/swevolution/subtract/Subtract/1.0-SNAPSHOT/Subtract-1.0-SNAPSHOT.jar</title>
<path fill="none" stroke="#000000" d="M2422.7111,-71.8314C2422.7111,-64.131 2422.7111,-54.9743 2422.7111,-46.4166"/>
<polygon fill="#000000" stroke="#000000" points="2426.2112,-46.4132 2422.7111,-36.4133 2419.2112,-46.4133 2426.2112,-46.4132"/>
</g>
<!-- @maven//:org_swevolution_multiply_Multiply&#45;&gt;@maven//:org_swevolution_subtract_Subtract -->
<g id="edge10" class="edge">
<title>@maven//:org_swevolution_multiply_Multiply-&gt;@maven//:org_swevolution_subtract_Subtract</title>
<path fill="none" stroke="#000000" d="M2008.1861,-143.9707C2089.1937,-133.4236 2191.4598,-120.1087 2274.1455,-109.3431"/>
<polygon fill="#000000" stroke="#000000" points="2274.6649,-112.8051 2284.1293,-108.0432 2273.7611,-105.8637 2274.6649,-112.8051"/>
</g>
<!-- @maven//:org_swevolution_add_Add -->
<g id="node8" class="node">
<title>@maven//:org_swevolution_add_Add</title>
<polygon fill="none" stroke="#000000" points="1552.0149,-108 1321.4073,-108 1321.4073,-72 1552.0149,-72 1552.0149,-108"/>
<text text-anchor="middle" x="1436.7111" y="-85.8" font-family="Times,serif" font-size="14.00" fill="#000000">@maven//:org_swevolution_add_Add</text>
</g>
<!-- @maven//:org_swevolution_multiply_Multiply&#45;&gt;@maven//:org_swevolution_add_Add -->
<g id="edge11" class="edge">
<title>@maven//:org_swevolution_multiply_Multiply-&gt;@maven//:org_swevolution_add_Add</title>
<path fill="none" stroke="#000000" d="M1761.2849,-143.9707C1698.6294,-133.5522 1619.7318,-120.433 1555.4137,-109.7381"/>
<polygon fill="#000000" stroke="#000000" points="1555.6596,-106.231 1545.2209,-108.0432 1554.5113,-113.1362 1555.6596,-106.231"/>
</g>
<!-- @maven//:v1/http/localhost%3A8000/org/swevolution/multiply/Multiply/1.0&#45;SNAPSHOT/Multiply&#45;1.0&#45;SNAPSHOT.jar -->
<g id="node9" class="node">
<title>@maven//:v1/http/localhost%3A8000/org/swevolution/multiply/Multiply/1.0-SNAPSHOT/Multiply-1.0-SNAPSHOT.jar</title>
<polygon fill="none" stroke="#000000" points="2265.7806,-108 1569.6416,-108 1569.6416,-72 2265.7806,-72 2265.7806,-108"/>
<text text-anchor="middle" x="1917.7111" y="-85.8" font-family="Times,serif" font-size="14.00" fill="#000000">@maven//:v1/http/localhost%3A8000/org/swevolution/multiply/Multiply/1.0-SNAPSHOT/Multiply-1.0-SNAPSHOT.jar</text>
</g>
<!-- @maven//:org_swevolution_multiply_Multiply&#45;&gt;@maven//:v1/http/localhost%3A8000/org/swevolution/multiply/Multiply/1.0&#45;SNAPSHOT/Multiply&#45;1.0&#45;SNAPSHOT.jar -->
<g id="edge9" class="edge">
<title>@maven//:org_swevolution_multiply_Multiply-&gt;@maven//:v1/http/localhost%3A8000/org/swevolution/multiply/Multiply/1.0-SNAPSHOT/Multiply-1.0-SNAPSHOT.jar</title>
<path fill="none" stroke="#000000" d="M1881.8235,-143.8314C1887.2392,-135.7079 1893.7353,-125.9637 1899.7032,-117.0118"/>
<polygon fill="#000000" stroke="#000000" points="1902.8007,-118.6753 1905.4356,-108.4133 1896.9764,-114.7923 1902.8007,-118.6753"/>
</g>
<!-- @maven//:org_swevolution_divide_Divide&#45;&gt;@maven//:org_swevolution_subtract_Subtract -->
<g id="edge7" class="edge">
<title>@maven//:org_swevolution_divide_Divide-&gt;@maven//:org_swevolution_subtract_Subtract</title>
<path fill="none" stroke="#000000" d="M1614.2864,-151.8027C1648.5591,-149.18 1685.5276,-146.4177 1719.7111,-144 1963.0295,-126.7906 2026.917,-130.8192 2274.0797,-108.0277"/>
<polygon fill="#000000" stroke="#000000" points="2274.4507,-111.5084 2284.0848,-107.0998 2273.8042,-104.5383 2274.4507,-111.5084"/>
</g>
<!-- @maven//:v1/http/localhost%3A8000/org/swevolution/divide/Divide/1.0&#45;SNAPSHOT/Divide&#45;1.0&#45;SNAPSHOT.jar -->
<g id="node7" class="node">
<title>@maven//:v1/http/localhost%3A8000/org/swevolution/divide/Divide/1.0-SNAPSHOT/Divide-1.0-SNAPSHOT.jar</title>
<polygon fill="none" stroke="#000000" points="1304.0142,-108 641.408,-108 641.408,-72 1304.0142,-72 1304.0142,-108"/>
<text text-anchor="middle" x="972.7111" y="-85.8" font-family="Times,serif" font-size="14.00" fill="#000000">@maven//:v1/http/localhost%3A8000/org/swevolution/divide/Divide/1.0-SNAPSHOT/Divide-1.0-SNAPSHOT.jar</text>
</g>
<!-- @maven//:org_swevolution_divide_Divide&#45;&gt;@maven//:v1/http/localhost%3A8000/org/swevolution/divide/Divide/1.0&#45;SNAPSHOT/Divide&#45;1.0&#45;SNAPSHOT.jar -->
<g id="edge6" class="edge">
<title>@maven//:org_swevolution_divide_Divide-&gt;@maven//:v1/http/localhost%3A8000/org/swevolution/divide/Divide/1.0-SNAPSHOT/Divide-1.0-SNAPSHOT.jar</title>
<path fill="none" stroke="#000000" d="M1356.5028,-143.9707C1281.8061,-133.4665 1187.5866,-120.2169 1111.1964,-109.4745"/>
<polygon fill="#000000" stroke="#000000" points="1111.4083,-105.9699 1101.0183,-108.0432 1110.4335,-112.9017 1111.4083,-105.9699"/>
</g>
<!-- @maven//:org_swevolution_divide_Divide&#45;&gt;@maven//:org_swevolution_add_Add -->
<g id="edge8" class="edge">
<title>@maven//:org_swevolution_divide_Divide-&gt;@maven//:org_swevolution_add_Add</title>
<path fill="none" stroke="#000000" d="M1472.5987,-143.8314C1467.183,-135.7079 1460.6869,-125.9637 1454.719,-117.0118"/>
<polygon fill="#000000" stroke="#000000" points="1457.4458,-114.7923 1448.9866,-108.4133 1451.6215,-118.6753 1457.4458,-114.7923"/>
</g>
<!-- @maven//:v1/http/localhost%3A8000/org/swevolution/add/Add/1.0&#45;SNAPSHOT/Add&#45;1.0&#45;SNAPSHOT.jar -->
<g id="node10" class="node">
<title>@maven//:v1/http/localhost%3A8000/org/swevolution/add/Add/1.0-SNAPSHOT/Add-1.0-SNAPSHOT.jar</title>
<polygon fill="none" stroke="#000000" points="1746.2415,-36 1127.1807,-36 1127.1807,0 1746.2415,0 1746.2415,-36"/>
<text text-anchor="middle" x="1436.7111" y="-13.8" font-family="Times,serif" font-size="14.00" fill="#000000">@maven//:v1/http/localhost%3A8000/org/swevolution/add/Add/1.0-SNAPSHOT/Add-1.0-SNAPSHOT.jar</text>
</g>
<!-- @maven//:org_swevolution_add_Add&#45;&gt;@maven//:v1/http/localhost%3A8000/org/swevolution/add/Add/1.0&#45;SNAPSHOT/Add&#45;1.0&#45;SNAPSHOT.jar -->
<g id="edge12" class="edge">
<title>@maven//:org_swevolution_add_Add-&gt;@maven//:v1/http/localhost%3A8000/org/swevolution/add/Add/1.0-SNAPSHOT/Add-1.0-SNAPSHOT.jar</title>
<path fill="none" stroke="#000000" d="M1436.7111,-71.8314C1436.7111,-64.131 1436.7111,-54.9743 1436.7111,-46.4166"/>
<polygon fill="#000000" stroke="#000000" points="1440.2112,-46.4132 1436.7111,-36.4133 1433.2112,-46.4133 1440.2112,-46.4132"/>
</g>
</g>
</svg>